<?xml version="1.0" encoding="UTF-8"?> <svg xmlns="http://www.w3.org/2000/svg" width="190" height="37" viewBox="0 0 190 37"><g fill="none" fill-rule="evenodd"><path fill="#FF4E44" d="M172.778 0L172.778 35.289 189.353 17.646z"></path><path fill="#F8F8F8" d="M112.182.306c1.59 0 3.129.208 4.612.625 1.486.418 2.872 1 4.162 1.752 1.288.75 2.463 1.656 3.524 2.718 1.058 1.062 1.965 2.239 2.715 3.536.75 1.295 1.332 2.685 1.75 4.162.416 1.48.626 3.023.626 4.63 0 1.608-.21 3.149-.627 4.626-.417 1.48-.999 2.86-1.749 4.142-.75 1.28-1.657 2.446-2.715 3.5-1.06 1.056-2.236 1.961-3.524 2.718-1.29.76-2.676 1.342-4.162 1.751-1.483.41-3.023.617-4.612.617-1.607 0-3.15-.208-4.627-.617-1.478-.409-2.86-.992-4.148-1.751-1.287-.757-2.46-1.662-3.513-2.718-1.052-1.054-1.959-2.22-2.714-3.5-.759-1.281-1.341-2.663-1.75-4.142-.411-1.477-.616-3.018-.616-4.627 0-1.606.205-3.15.616-4.63.409-1.476.991-2.866 1.75-4.16.755-1.298 1.662-2.475 2.714-3.537 1.053-1.062 2.226-1.967 3.513-2.718 1.288-.751 2.67-1.334 4.148-1.752 1.478-.417 3.02-.625 4.627-.625zm35.81-.227c1.379 0 2.7.154 3.965.465 1.262.312 2.51.81 3.737 1.491.515.303 1.002.617 1.464.945.461.325.867.639 1.214.944.35.303.624.591.832.863.204.272.307.507.307.704 0 .198-.05.38-.15.546-.099.168-.247.356-.443.569l-3.473 3.707c-.258.258-.515.387-.773.387-.213 0-.406-.059-.582-.182-.174-.12-.367-.272-.58-.454l-.201-.182c-.305-.258-.64-.524-1.013-.796-.37-.275-.767-.519-1.193-.74-.422-.219-.87-.4-1.337-.546-.47-.143-.95-.216-1.433-.216-.499 0-.969.042-1.408.126-.44.081-.826.216-1.159.398-.333.182-.599.42-.795.717-.199.294-.294.653-.294 1.08 0 .425.104.792.316 1.1.213.311.53.6.955.866.425.267.952.516 1.578.751.63.236 1.36.488 2.192.763 1.607.53 3.087 1.087 4.442 1.67 1.355.585 2.524 1.275 3.51 2.07.982.796 1.752 1.75 2.306 2.856.551 1.104.828 2.45.828 4.024 0 1.668-.341 3.18-1.021 4.537-.683 1.356-1.618 2.514-2.807 3.47-1.19.952-2.587 1.692-4.19 2.216-1.607.524-3.331.785-5.178.785-1.744 0-3.454-.314-5.134-.936-1.682-.622-3.252-1.457-4.704-2.508-.605-.44-1.117-.875-1.531-1.3-.418-.427-.748-.768-.988-1.026l-.07-.07c-.014-.028-.031-.048-.045-.056-.017-.009-.031-.02-.048-.034-.014-.03-.028-.05-.045-.056-.014-.008-.028-.022-.044-.036-.347-.382-.521-.684-.521-.911 0-.26.174-.55.52-.869l3.93-3.752c.32-.227.577-.342.773-.342.137 0 .28.048.43.137.152.093.334.227.547.41.257.212.587.498.988.854.403.356.859.71 1.374 1.057.772.515 1.536.916 2.295 1.205.756.288 1.55.431 2.385.431.772 0 1.419-.087 1.942-.26.52-.174.935-.407 1.237-.693.305-.288.518-.622.647-1 .131-.378.196-.78.196-1.205 0-.468-.18-.891-.535-1.261-.355-.37-.792-.7-1.307-.99-.515-.285-1.052-.532-1.612-.736-.56-.205-1.044-.376-1.453-.513-1.82-.636-3.409-1.323-4.772-2.057-1.363-.734-2.497-1.553-3.406-2.452-.91-.902-1.59-1.894-2.046-2.979-.454-1.082-.68-2.29-.68-3.623 0-1.41.282-2.69.85-3.842.569-1.15 1.38-2.136 2.433-2.954 1.052-.818 2.32-1.449 3.803-1.897 1.484-.446 3.144-.67 4.974-.67zM74.823.784c.257 0 .492.09.705.272.213.182.325.426.342.728v24.747h12.491c.274 0 .51.09.706.272.195.182.293.432.293.751v5.98c0 .258-.084.493-.26.706-.173.213-.42.325-.739.342H68.08c-.667 0-1-.336-1-1.003V1.784c0-.272.09-.507.272-.703.182-.196.43-.297.75-.297h6.723zM47.066.807c.258 0 .476.079.658.239.182.16.319.3.408.42l.571 1.297 11.924 30.792c.123.305.098.552-.067.743-.168.19-.454.283-.865.283h-6.519c-.347 0-.618-.065-.806-.194-.19-.129-.336-.344-.442-.65-.305-.77-.6-1.538-.888-2.306-.288-.765-.576-1.536-.862-2.31H38.115c-.288.774-.58 1.545-.873 2.31-.297.768-.588 1.535-.876 2.306-.196.563-.582.844-1.159.844h-6.7c-.286 0-.527-.076-.714-.227-.19-.152-.224-.379-.104-.684L40.024 1.693c.014-.09.064-.188.148-.294.082-.107.185-.205.308-.297.12-.09.25-.163.386-.216.135-.053.264-.079.384-.079h5.816zm-21.557 0c.272 0 .515.081.728.25.21.165.333.414.361.748V7.45c0 .272-.092.533-.283.782-.19.25-.459.376-.806.376h-7.837v24.9c0 .275-.098.522-.296.74-.194.222-.451.331-.767.331H9.944c-.257 0-.498-.1-.724-.308-.227-.205-.34-.46-.34-.762V8.609H1.067c-.302 0-.557-.098-.76-.297C.1 8.115 0 7.827 0 7.452V1.804c0-.303.1-.544.305-.726.204-.182.46-.272.761-.272H25.51zm86.673 7.867c-1.257 0-2.405.238-3.449.706-1.044.47-1.948 1.115-2.712 1.934-.764.818-1.357 1.78-1.78 2.878-.422 1.098-.635 2.27-.635 3.514 0 1.258.213 2.432.635 3.525.423 1.09 1.016 2.043 1.78 2.853.764.812 1.668 1.449 2.712 1.91 1.044.463 2.192.696 3.449.696 1.254 0 2.407-.233 3.46-.695 1.049-.462 1.958-1.099 2.72-1.911.764-.81 1.357-1.763 1.783-2.853.422-1.093.635-2.267.635-3.525 0-1.244-.213-2.416-.635-3.514-.426-1.099-1.02-2.06-1.783-2.878-.762-.819-1.671-1.463-2.72-1.934-1.053-.468-2.206-.706-3.46-.706zm-68.024 2.754c-.288.773-.58 1.609-.873 2.502-.294.894-.588 1.797-.876 2.705-.289.91-.58 1.807-.874 2.695-.296.889-.587 1.718-.876 2.492h6.975l-3.476-10.394z"></path></g></svg> 