<?xml version="1.0" encoding="utf-8"?>
<svg xmlns="http://www.w3.org/2000/svg">
<symbol id="icon-angle-down" viewBox="0 0 24 24">
  <path d="M16.59 8.59L12 13.17 7.41 8.59 6 10l6 6 6-6z"/>

</symbol>
<symbol id="icon-angle-left" viewBox="0 0 24 24">
  <path d="M15.41 7.41L14 6l-6 6 6 6 1.41-1.41L10.83 12z"/>

</symbol>
<symbol id="icon-angle-right" viewBox="0 0 24 24">
  <path d="M10 6L8.59 7.41 13.17 12l-4.58 4.59L10 18l6-6z"/>

</symbol>
<symbol id="icon-angle-up" viewBox="0 0 24 24">
  <path d="M12 8l-6 6 1.41 1.41L12 10.83l4.59 4.58L18 14z"/>

</symbol>
<symbol id="icon-bars" viewBox="0 0 24 24">
  <path d="M3 18h18v-2H3v2zm0-5h18v-2H3v2zm0-7v2h18V6H3z"/>

</symbol>
<symbol id="icon-cc-amex" viewBox="0 0 576 512">
  <path d="M325.1 167.8c0-16.4-14.1-18.4-27.4-18.4l-39.1-.3v69.3H275v-25.1h18c18.4 0 14.5 10.3 14.8 25.1h16.6v-13.5c0-9.2-1.5-15.1-11-18.4 7.4-3 11.8-10.7 11.7-18.7zm-29.4 11.3H275v-15.3h21c5.1 0 10.7 1 10.7 7.4 0 6.6-5.3 7.9-11 7.9zM279 268.6h-52.7l-21 22.8-20.5-22.8h-66.5l-.1 69.3h65.4l21.3-23 20.4 23h32.2l.1-23.3c18.9 0 49.3 4.6 49.3-23.3 0-17.3-12.3-22.7-27.9-22.7zm-103.8 54.7h-40.6v-13.8h36.3v-14.1h-36.3v-12.5h41.7l17.9 20.2zm65.8 8.2l-25.3-28.1L241 276zm37.8-31h-21.2v-17.6h21.5c5.6 0 10.2 2.3 10.2 8.4 0 6.4-4.6 9.2-10.5 9.2zm-31.6-136.7v-14.6h-55.5v69.3h55.5v-14.3h-38.9v-13.8h37.8v-14.1h-37.8v-12.5zM576 255.4h-.2zm-194.6 31.9c0-16.4-14.1-18.7-27.1-18.7h-39.4l-.1 69.3h16.6l.1-25.3h17.6c11 0 14.8 2 14.8 13.8l-.1 11.5h16.6l.1-13.8c0-8.9-1.8-15.1-11-18.4 7.7-3.1 11.8-10.8 11.9-18.4zm-29.2 11.2h-20.7v-15.6h21c5.1 0 10.7 1 10.7 7.4 0 6.9-5.4 8.2-11 8.2zm-172.8-80v-69.3h-27.6l-19.7 47-21.7-47H83.3v65.7l-28.1-65.7H30.7L1 218.5h17.9l6.4-15.3h34.5l6.4 15.3H100v-54.2l24 54.2h14.6l24-54.2v54.2zM31.2 188.8l11.2-27.6 11.5 27.6zm477.4 158.9v-4.5c-10.8 5.6-3.9 4.5-156.7 4.5 0-25.2.1-23.9 0-25.2-1.7-.1-3.2-.1-9.4-.1 0 17.9-.1 6.8-.1 25.3h-39.6c0-12.1.1-15.3.1-29.2-10 6-22.8 6.4-34.3 6.2 0 14.7-.1 8.3-.1 23h-48.9c-5.1-5.7-2.7-3.1-15.4-17.4-3.2 3.5-12.8 13.9-16.1 17.4h-82v-92.3h83.1c5 5.6 2.8 3.1 15.5 17.2 3.2-3.5 12.2-13.4 15.7-17.2h58c9.8 0 18 1.9 24.3 5.6v-5.6c54.3 0 64.3-1.4 75.7 5.1v-5.1h78.2v5.2c11.4-6.9 19.6-5.2 64.9-5.2v5c10.3-5.9 16.6-5.2 54.3-5V80c0-26.5-21.5-48-48-48h-480c-26.5 0-48 21.5-48 48v109.8c9.4-21.9 19.7-46 23.1-53.9h39.7c4.3 10.1 1.6 3.7 9 21.1v-21.1h46c2.9 6.2 11.1 24 13.9 30 5.8-13.6 10.1-23.9 12.6-30h103c0-.1 11.5 0 11.6 0 43.7.2 53.6-.8 64.4 5.3v-5.3H363v9.3c7.6-6.1 17.9-9.3 30.7-9.3h27.6c0 .5 1.9.3 2.3.3H456c4.2 9.8 2.6 6 8.8 20.6v-20.6h43.3c4.9 8-1-1.8 11.2 18.4v-18.4h39.9v92h-41.6c-5.4-9-1.4-2.2-13.2-21.9v21.9h-52.8c-6.4-14.8-.1-.3-6.6-15.3h-19c-4.2 10-2.2 5.2-6.4 15.3h-26.8c-12.3 0-22.3-3-29.7-8.9v8.9h-66.5c-.3-13.9-.1-24.8-.1-24.8-1.8-.3-3.4-.2-9.8-.2v25.1H151.2v-11.4c-2.5 5.6-2.7 5.9-5.1 11.4h-29.5c-4-8.9-2.9-6.4-5.1-11.4v11.4H58.6c-4.2-10.1-2.2-5.3-6.4-15.3H33c-4.2 10-2.2 5.2-6.4 15.3H0V432c0 26.5 21.5 48 48 48h480.1c26.5 0 48-21.5 48-48v-90.4c-12.7 8.3-32.7 6.1-67.5 6.1zm36.3-64.5H575v-14.6h-32.9c-12.8 0-23.8 6.6-23.8 20.7 0 33 42.7 12.8 42.7 27.4 0 5.1-4.3 6.4-8.4 6.4h-32l-.1 14.8h32c8.4 0 17.6-1.8 22.5-8.9v-25.8c-10.5-13.8-39.3-1.3-39.3-13.5 0-5.8 4.6-6.5 9.2-6.5zm-57 39.8h-32.2l-.1 14.8h32.2c14.8 0 26.2-5.6 26.2-22 0-33.2-42.9-11.2-42.9-26.3 0-5.6 4.9-6.4 9.2-6.4h30.4v-14.6h-33.2c-12.8 0-23.5 6.6-23.5 20.7 0 33 42.7 12.5 42.7 27.4-.1 5.4-4.7 6.4-8.8 6.4zm-42.2-40.1v-14.3h-55.2l-.1 69.3h55.2l.1-14.3-38.6-.3v-13.8H445v-14.1h-37.8v-12.5zm-56.3-108.1c-.3.2-1.4 2.2-1.4 7.6 0 6 .9 7.7 1.1 7.9.2.1 1.1.5 3.4.5l7.3-16.9c-1.1 0-2.1-.1-3.1-.1-5.6 0-7 .7-7.3 1zm20.4-10.5h-.1zm-16.2-15.2c-23.5 0-34 12-34 35.3 0 22.2 10.2 34 33 34h19.2l6.4-15.3h34.3l6.6 15.3h33.7v-51.9l31.2 51.9h23.6v-69h-16.9v48.1l-29.1-48.1h-25.3v65.4l-27.9-65.4h-24.8l-23.5 54.5h-7.4c-13.3 0-16.1-8.1-16.1-19.9 0-23.8 15.7-20 33.1-19.7v-15.2zm42.1 12.1l11.2 27.6h-22.8zm-101.1-12v69.3h16.9v-69.3z"/>

</symbol>
<symbol id="icon-cc-diners-club" viewBox="0 0 576 512">
  <path d="M239.7 79.9c-96.9 0-175.8 78.6-175.8 175.8 0 96.9 78.9 175.8 175.8 175.8 97.2 0 175.8-78.9 175.8-175.8 0-97.2-78.6-175.8-175.8-175.8zm-39.9 279.6c-41.7-15.9-71.4-56.4-71.4-103.8s29.7-87.9 71.4-104.1v207.9zm79.8.3V151.6c41.7 16.2 71.4 56.7 71.4 104.1s-29.7 87.9-71.4 104.1zM528 32H48C21.5 32 0 53.5 0 80v352c0 26.5 21.5 48 48 48h480c26.5 0 48-21.5 48-48V80c0-26.5-21.5-48-48-48zM329.7 448h-90.3c-106.2 0-193.8-85.5-193.8-190.2C45.6 143.2 133.2 64 239.4 64h90.3c105 0 200.7 79.2 200.7 193.8 0 104.7-95.7 190.2-200.7 190.2z"/>

</symbol>
<symbol id="icon-cc-mastercard" viewBox="0 0 576 512">
  <path d="M482.9 410.3c0 6.8-4.6 11.7-11.2 11.7-6.8 0-11.2-5.2-11.2-11.7 0-6.5 4.4-11.7 11.2-11.7 6.6 0 11.2 5.2 11.2 11.7zm-310.8-11.7c-7.1 0-11.2 5.2-11.2 11.7 0 6.5 4.1 11.7 11.2 11.7 6.5 0 10.9-4.9 10.9-11.7-.1-6.5-4.4-11.7-10.9-11.7zm117.5-.3c-5.4 0-8.7 3.5-9.5 8.7h19.1c-.9-5.7-4.4-8.7-9.6-8.7zm107.8.3c-6.8 0-10.9 5.2-10.9 11.7 0 6.5 4.1 11.7 10.9 11.7 6.8 0 11.2-4.9 11.2-11.7 0-6.5-4.4-11.7-11.2-11.7zm105.9 26.1c0 .3.3.5.3 1.1 0 .3-.3.5-.3 1.1-.3.3-.3.5-.5.8-.3.3-.5.5-1.1.5-.3.3-.5.3-1.1.3-.3 0-.5 0-1.1-.3-.3 0-.5-.3-.8-.5-.3-.3-.5-.5-.5-.8-.3-.5-.3-.8-.3-1.1 0-.5 0-.8.3-1.1 0-.5.3-.8.5-1.1.3-.3.5-.3.8-.5.5-.3.8-.3 1.1-.3.5 0 .8 0 1.1.3.5.3.8.3 1.1.5s.2.6.5 1.1zm-2.2 1.4c.5 0 .5-.3.8-.3.3-.3.3-.5.3-.8 0-.3 0-.5-.3-.8-.3 0-.5-.3-1.1-.3h-1.6v3.5h.8V426h.3l1.1 1.4h.8l-1.1-1.3zM576 81v352c0 26.5-21.5 48-48 48H48c-26.5 0-48-21.5-48-48V81c0-26.5 21.5-48 48-48h480c26.5 0 48 21.5 48 48zM64 220.6c0 76.5 62.1 138.5 138.5 138.5 27.2 0 53.9-8.2 76.5-23.1-72.9-59.3-72.4-171.2 0-230.5-22.6-15-49.3-23.1-76.5-23.1-76.4-.1-138.5 62-138.5 138.2zm224 108.8c70.5-55 70.2-162.2 0-217.5-70.2 55.3-70.5 162.6 0 217.5zm-142.3 76.3c0-8.7-5.7-14.4-14.7-14.7-4.6 0-9.5 1.4-12.8 6.5-2.4-4.1-6.5-6.5-12.2-6.5-3.8 0-7.6 1.4-10.6 5.4V392h-8.2v36.7h8.2c0-18.9-2.5-30.2 9-30.2 10.2 0 8.2 10.2 8.2 30.2h7.9c0-18.3-2.5-30.2 9-30.2 10.2 0 8.2 10 8.2 30.2h8.2v-23zm44.9-13.7h-7.9v4.4c-2.7-3.3-6.5-5.4-11.7-5.4-10.3 0-18.2 8.2-18.2 19.3 0 11.2 7.9 19.3 18.2 19.3 5.2 0 9-1.9 11.7-5.4v4.6h7.9V392zm40.5 25.6c0-15-22.9-8.2-22.9-15.2 0-5.7 11.9-4.8 18.5-1.1l3.3-6.5c-9.4-6.1-30.2-6-30.2 8.2 0 14.3 22.9 8.3 22.9 15 0 6.3-13.5 5.8-20.7.8l-3.5 6.3c11.2 7.6 32.6 6 32.6-7.5zm35.4 9.3l-2.2-6.8c-3.8 2.1-12.2 4.4-12.2-4.1v-16.6h13.1V392h-13.1v-11.2h-8.2V392h-7.6v7.3h7.6V416c0 17.6 17.3 14.4 22.6 10.9zm13.3-13.4h27.5c0-16.2-7.4-22.6-17.4-22.6-10.6 0-18.2 7.9-18.2 19.3 0 20.5 22.6 23.9 33.8 14.2l-3.8-6c-7.8 6.4-19.6 5.8-21.9-4.9zm59.1-21.5c-4.6-2-11.6-1.8-15.2 4.4V392h-8.2v36.7h8.2V408c0-11.6 9.5-10.1 12.8-8.4l2.4-7.6zm10.6 18.3c0-11.4 11.6-15.1 20.7-8.4l3.8-6.5c-11.6-9.1-32.7-4.1-32.7 15 0 19.8 22.4 23.8 32.7 15l-3.8-6.5c-9.2 6.5-20.7 2.6-20.7-8.6zm66.7-18.3H408v4.4c-8.3-11-29.9-4.8-29.9 13.9 0 19.2 22.4 24.7 29.9 13.9v4.6h8.2V392zm33.7 0c-2.4-1.2-11-2.9-15.2 4.4V392h-7.9v36.7h7.9V408c0-11 9-10.3 12.8-8.4l2.4-7.6zm40.3-14.9h-7.9v19.3c-8.2-10.9-29.9-5.1-29.9 13.9 0 19.4 22.5 24.6 29.9 13.9v4.6h7.9v-51.7zm7.6-75.1v4.6h.8V302h1.9v-.8h-4.6v.8h1.9zm6.6 123.8c0-.5 0-1.1-.3-1.6-.3-.3-.5-.8-.8-1.1-.3-.3-.8-.5-1.1-.8-.5 0-1.1-.3-1.6-.3-.3 0-.8.3-1.4.3-.5.3-.8.5-1.1.8-.5.3-.8.8-.8 1.1-.3.5-.3 1.1-.3 1.6 0 .3 0 .8.3 1.4 0 .3.3.8.8 1.1.3.3.5.5 1.1.8.5.3 1.1.3 1.4.3.5 0 1.1 0 1.6-.3.3-.3.8-.5 1.1-.8.3-.3.5-.8.8-1.1.3-.6.3-1.1.3-1.4zm3.2-124.7h-1.4l-1.6 3.5-1.6-3.5h-1.4v5.4h.8v-4.1l1.6 3.5h1.1l1.4-3.5v4.1h1.1v-5.4zm4.4-80.5c0-76.2-62.1-138.3-138.5-138.3-27.2 0-53.9 8.2-76.5 23.1 72.1 59.3 73.2 171.5 0 230.5 22.6 15 49.5 23.1 76.5 23.1 76.4.1 138.5-61.9 138.5-138.4z"/>

</symbol>
<symbol id="icon-cc-visa" viewBox="0 0 576 512">
  <path d="M470.1 231.3s7.6 37.2 9.3 45H446c3.3-8.9 16-43.5 16-43.5-.2.3 3.3-9.1 5.3-14.9l2.8 13.4zM576 80v352c0 26.5-21.5 48-48 48H48c-26.5 0-48-21.5-48-48V80c0-26.5 21.5-48 48-48h480c26.5 0 48 21.5 48 48zM152.5 331.2L215.7 176h-42.5l-39.3 106-4.3-21.5-14-71.4c-2.3-9.9-9.4-12.7-18.2-13.1H32.7l-.7 3.1c15.8 4 29.9 9.8 42.2 17.1l35.8 135h42.5zm94.4.2L272.1 176h-40.2l-25.1 155.4h40.1zm139.9-50.8c.2-17.7-10.6-31.2-33.7-42.3-14.1-7.1-22.7-11.9-22.7-19.2.2-6.6 7.3-13.4 23.1-13.4 13.1-.3 22.7 2.8 29.9 5.9l3.6 1.7 5.5-33.6c-7.9-3.1-20.5-6.6-36-6.6-39.7 0-67.6 21.2-67.8 51.4-.3 22.3 20 34.7 35.2 42.2 15.5 7.6 20.8 12.6 20.8 19.3-.2 10.4-12.6 15.2-24.1 15.2-16 0-24.6-2.5-37.7-8.3l-5.3-2.5-5.6 34.9c9.4 4.3 26.8 8.1 44.8 8.3 42.2.1 69.7-20.8 70-53zM528 331.4L495.6 176h-31.1c-9.6 0-16.9 2.8-21 12.9l-59.7 142.5H426s6.9-19.2 8.4-23.3H486c1.2 5.5 4.8 23.3 4.8 23.3H528z"/>

</symbol>
<symbol id="icon-check-circle" viewBox="0 0 512 512">
  <path d="M504 256c0 136.967-111.033 248-248 248S8 392.967 8 256 119.033 8 256 8s248 111.033 248 248zM227.314 387.314l184-184c6.248-6.248 6.248-16.379 0-22.627l-22.627-22.627c-6.248-6.249-16.379-6.249-22.628 0L216 308.118l-70.059-70.059c-6.248-6.248-16.379-6.248-22.628 0l-22.627 22.627c-6.248 6.248-6.248 16.379 0 22.627l104 104c6.249 6.249 16.379 6.249 22.628.001z"/>

</symbol>
<symbol id="icon-check" viewBox="0 0 24 24">
  <path d="M9 16.2L4.8 12l-1.4 1.4L9 19 21 7l-1.4-1.4L9 16.2z"/>

</symbol>
<symbol id="icon-circle" viewBox="0 0 512 512">
  <path d="M256 8C119 8 8 119 8 256s111 248 248 248 248-111 248-248S393 8 256 8z"/>

</symbol>
<symbol id="icon-clock-outline" viewBox="0 0 512 512">
  <path d="M256 8C119 8 8 119 8 256s111 248 248 248 248-111 248-248S393 8 256 8zm0 448c-110.5 0-200-89.5-200-200S145.5 56 256 56s200 89.5 200 200-89.5 200-200 200zm61.8-104.4l-84.9-61.7c-3.1-2.3-4.9-5.9-4.9-9.7V116c0-6.6 5.4-12 12-12h32c6.6 0 12 5.4 12 12v141.7l66.8 48.6c5.4 3.9 6.5 11.4 2.6 16.8L334.6 349c-3.9 5.3-11.4 6.5-16.8 2.6z"/>

</symbol>
<symbol id="icon-credit-card" viewBox="0 0 576 512">
  <path d="M0 432c0 26.5 21.5 48 48 48h480c26.5 0 48-21.5 48-48V256H0v176zm192-68c0-6.6 5.4-12 12-12h136c6.6 0 12 5.4 12 12v40c0 6.6-5.4 12-12 12H204c-6.6 0-12-5.4-12-12v-40zm-128 0c0-6.6 5.4-12 12-12h72c6.6 0 12 5.4 12 12v40c0 6.6-5.4 12-12 12H76c-6.6 0-12-5.4-12-12v-40zM576 80v48H0V80c0-26.5 21.5-48 48-48h480c26.5 0 48 21.5 48 48z"/>

</symbol>
<symbol id="icon-exclamation-circle" viewBox="0 0 512 512">
  <path d="M504 256c0 136.997-111.043 248-248 248S8 392.997 8 256C8 119.083 119.043 8 256 8s248 111.083 248 248zm-248 50c-25.405 0-46 20.595-46 46s20.595 46 46 46 46-20.595 46-46-20.595-46-46-46zm-43.673-165.346l7.418 136c.347 6.364 5.609 11.346 11.982 11.346h48.546c6.373 0 11.635-4.982 11.982-11.346l7.418-136c.375-6.874-5.098-12.654-11.982-12.654h-63.383c-6.884 0-12.356 5.78-11.981 12.654z"/>

</symbol>
<symbol id="icon-exclamation-triangle" viewBox="0 0 576 512">
  <path d="M569.517 440.013C587.975 472.007 564.806 512 527.94 512H48.054c-36.937 0-59.999-40.055-41.577-71.987L246.423 23.985c18.467-32.009 64.72-31.951 83.154 0l239.94 416.028zM288 354c-25.405 0-46 20.595-46 46s20.595 46 46 46 46-20.595 46-46-20.595-46-46-46zm-43.673-165.346l7.418 136c.347 6.364 5.609 11.346 11.982 11.346h48.546c6.373 0 11.635-4.982 11.982-11.346l7.418-136c.375-6.874-5.098-12.654-11.982-12.654h-63.383c-6.884 0-12.356 5.78-11.981 12.654z"/>

</symbol>
<symbol id="icon-external-link" viewBox="0 0 512 512">
  <path d="M432,320H400a16,16,0,0,0-16,16V448H64V128H208a16,16,0,0,0,16-16V80a16,16,0,0,0-16-16H48A48,48,0,0,0,0,112V464a48,48,0,0,0,48,48H400a48,48,0,0,0,48-48V336A16,16,0,0,0,432,320ZM488,0h-128c-21.37,0-32.05,25.91-17,41l35.73,35.73L135,320.37a24,24,0,0,0,0,34L157.67,377a24,24,0,0,0,34,0L435.28,133.32,471,169c15,15,41,4.5,41-17V24A24,24,0,0,0,488,0Z"/>

</symbol>
<symbol id="icon-filter" viewBox="0 0 512 512">
  <path d="M487.976 0H24.028C2.71 0-8.047 25.866 7.058 40.971L192 225.941V432c0 7.831 3.821 15.17 10.237 19.662l80 55.98C298.02 518.69 320 507.493 320 487.98V225.941l184.947-184.97C520.021 25.896 509.338 0 487.976 0z"/>

</symbol>
<symbol id="icon-heart-outline" viewBox="0 0 512 512">
  <path d="M458.4 64.3C400.6 15.7 311.3 23 256 79.3 200.7 23 111.4 15.6 53.6 64.3-21.6 127.6-10.6 230.8 43 285.5l175.4 178.7c10 10.2 23.4 15.9 37.6 15.9 14.3 0 27.6-5.6 37.6-15.8L469 285.6c53.5-54.7 64.7-157.9-10.6-221.3zm-23.6 187.5L259.4 430.5c-2.4 2.4-4.4 2.4-6.8 0L77.2 251.8c-36.5-37.2-43.9-107.6 7.3-150.7 38.9-32.7 98.9-27.8 136.5 10.5l35 35.7 35-35.7c37.8-38.5 97.8-43.2 136.5-10.6 51.1 43.1 43.5 113.9 7.3 150.8z"/>

</symbol>
<symbol id="icon-heart" viewBox="0 0 512 512">
  <path d="M462.3 62.6C407.5 15.9 326 24.3 275.7 76.2L256 96.5l-19.7-20.3C186.1 24.3 104.5 15.9 49.7 62.6c-62.8 53.6-66.1 149.8-9.9 207.9l193.5 199.8c12.5 12.9 32.8 12.9 45.3 0l193.5-199.8c56.3-58.1 53-154.3-9.8-207.9z"/>

</symbol>
<symbol id="icon-info-circle" viewBox="0 0 512 512">
  <path d="M256 8C119.043 8 8 119.083 8 256c0 136.997 111.043 248 248 248s248-111.003 248-248C504 119.083 392.957 8 256 8zm0 110c23.196 0 42 18.804 42 42s-18.804 42-42 42-42-18.804-42-42 18.804-42 42-42zm56 254c0 6.627-5.373 12-12 12h-88c-6.627 0-12-5.373-12-12v-24c0-6.627 5.373-12 12-12h12v-64h-12c-6.627 0-12-5.373-12-12v-24c0-6.627 5.373-12 12-12h64c6.627 0 12 5.373 12 12v100h12c6.627 0 12 5.373 12 12v24z"/>

</symbol>
<symbol id="icon-minus" viewBox="0 0 24 24">
  <path d="M19 13H5v-2h14v2z"/>

</symbol>
<symbol id="icon-pencil" viewBox="0 0 512 512">
  <path d="M497.9 142.1l-46.1 46.1c-4.7 4.7-12.3 4.7-17 0l-111-111c-4.7-4.7-4.7-12.3 0-17l46.1-46.1c18.7-18.7 49.1-18.7 67.9 0l60.1 60.1c18.8 18.7 18.8 49.1 0 67.9zM284.2 99.8L21.6 362.4.4 483.9c-2.9 16.4 11.4 30.6 27.8 27.8l121.5-21.3 262.6-262.6c4.7-4.7 4.7-12.3 0-17l-111-111c-4.8-4.7-12.4-4.7-17.1 0zM124.1 339.9c-5.5-5.5-5.5-14.3 0-19.8l154-154c5.5-5.5 14.3-5.5 19.8 0s5.5 14.3 0 19.8l-154 154c-5.5 5.5-14.3 5.5-19.8 0zM88 424h48v36.3l-64.5 11.3-31.1-31.1L51.7 376H88v48z"/>

</symbol>
<symbol id="icon-plus" viewBox="0 0 24 24">
  <path d="M19 13h-6v6h-2v-6H5v-2h6V5h2v6h6v2z"/>

</symbol>
<symbol id="icon-search" viewBox="0 0 24 24">
  <path d="M15.5 14h-.79l-.28-.27C15.41 12.59 16 11.11 16 9.5 16 5.91 13.09 3 9.5 3S3 5.91 3 9.5 5.91 16 9.5 16c1.61 0 3.09-.59 4.23-1.57l.27.28v.79l5 4.99L20.49 19l-4.99-5zm-6 0C7.01 14 5 11.99 5 9.5S7.01 5 9.5 5 14 7.01 14 9.5 11.99 14 9.5 14z"/>

</symbol>
<symbol id="icon-shopping-cart" viewBox="0 0 24 24">
  <path d="M7 18c-1.1 0-1.99.9-1.99 2S5.9 22 7 22s2-.9 2-2-.9-2-2-2zM1 2v2h2l3.6 7.59-1.35 2.45c-.16.28-.25.61-.25.96 0 1.1.9 2 2 2h12v-2H7.42c-.14 0-.25-.11-.25-.25l.03-.12.9-1.63h7.45c.75 0 1.41-.41 1.75-1.03l3.58-6.49c.08-.14.12-.31.12-.48 0-.55-.45-1-1-1H5.21l-.94-2H1zm16 16c-1.1 0-1.99.9-1.99 2s.89 2 1.99 2 2-.9 2-2-.9-2-2-2z"/>

</symbol>
<symbol id="icon-sort-down" viewBox="0 0 320 512">
  <path d="M41 288h238c21.4 0 32.1 25.9 17 41L177 448c-9.4 9.4-24.6 9.4-33.9 0L24 329c-15.1-15.1-4.4-41 17-41z"/>

</symbol>
<symbol id="icon-sort" viewBox="0 0 320 512">
  <path d="M41 288h238c21.4 0 32.1 25.9 17 41L177 448c-9.4 9.4-24.6 9.4-33.9 0L24 329c-15.1-15.1-4.4-41 17-41zm255-105L177 64c-9.4-9.4-24.6-9.4-33.9 0L24 183c-15.1 15.1-4.4 41 17 41h238c21.4 0 32.1-25.9 17-41z"/>

</symbol>
<symbol id="icon-star" viewBox="0 0 576 512">
  <path d="M259.3 17.8L194 150.2 47.9 171.5c-26.2 3.8-36.7 36.1-17.7 54.6l105.7 103-25 145.5c-4.5 26.3 23.2 46 46.4 33.7L288 439.6l130.7 68.7c23.2 12.2 50.9-7.4 46.4-33.7l-25-145.5 105.7-103c19-18.5 8.5-50.8-17.7-54.6L382 150.2 316.7 17.8c-11.7-23.6-45.6-23.9-57.4 0z"/>

</symbol>
<symbol id="icon-th-large" viewBox="0 0 512 512">
  <path d="M296 32h192c13.255 0 24 10.745 24 24v160c0 13.255-10.745 24-24 24H296c-13.255 0-24-10.745-24-24V56c0-13.255 10.745-24 24-24zm-80 0H24C10.745 32 0 42.745 0 56v160c0 13.255 10.745 24 24 24h192c13.255 0 24-10.745 24-24V56c0-13.255-10.745-24-24-24zM0 296v160c0 13.255 10.745 24 24 24h192c13.255 0 24-10.745 24-24V296c0-13.255-10.745-24-24-24H24c-13.255 0-24 10.745-24 24zm296 184h192c13.255 0 24-10.745 24-24V296c0-13.255-10.745-24-24-24H296c-13.255 0-24 10.745-24 24v160c0 13.255 10.745 24 24 24z"/>

</symbol>
<symbol id="icon-times-circle" viewBox="0 0 512 512">
  <path d="M256 8C119 8 8 119 8 256s111 248 248 248 248-111 248-248S393 8 256 8zm121.6 313.1c4.7 4.7 4.7 12.3 0 17L338 377.6c-4.7 4.7-12.3 4.7-17 0L256 312l-65.1 65.6c-4.7 4.7-12.3 4.7-17 0L134.4 338c-4.7-4.7-4.7-12.3 0-17l65.6-65-65.6-65.1c-4.7-4.7-4.7-12.3 0-17l39.6-39.6c4.7-4.7 12.3-4.7 17 0l65 65.7 65.1-65.6c4.7-4.7 12.3-4.7 17 0l39.6 39.6c4.7 4.7 4.7 12.3 0 17L312 256l65.6 65.1z"/>

</symbol>
<symbol id="icon-times" viewBox="0 0 24 24">
  <path d="M19 6.41L17.59 5 12 10.59 6.41 5 5 6.41 10.59 12 5 17.59 6.41 19 12 13.41 17.59 19 19 17.59 13.41 12z"/>

</symbol>
<symbol id="icon-toggle-off" viewBox="0 0 576 512">
  <path d="M384 64H192C85.961 64 0 149.961 0 256s85.961 192 192 192h192c106.039 0 192-85.961 192-192S490.039 64 384 64zM64 256c0-70.741 57.249-128 128-128 70.741 0 128 57.249 128 128 0 70.741-57.249 128-128 128-70.741 0-128-57.249-128-128zm320 128h-48.905c65.217-72.858 65.236-183.12 0-256H384c70.741 0 128 57.249 128 128 0 70.74-57.249 128-128 128z"/>

</symbol>
<symbol id="icon-toggle-on" viewBox="0 0 576 512">
  <path d="M384 64H192C86 64 0 150 0 256s86 192 192 192h192c106 0 192-86 192-192S490 64 384 64zm0 320c-70.8 0-128-57.3-128-128 0-70.8 57.3-128 128-128 70.8 0 128 57.3 128 128 0 70.8-57.3 128-128 128z"/>

</symbol>
<symbol id="icon-trash" viewBox="0 0 448 512">
  <path d="M432 32H312l-9.4-18.7A24 24 0 0 0 281.1 0H166.8a23.72 23.72 0 0 0-21.4 13.3L136 32H16A16 16 0 0 0 0 48v32a16 16 0 0 0 16 16h416a16 16 0 0 0 16-16V48a16 16 0 0 0-16-16zM53.2 467a48 48 0 0 0 47.9 45h245.8a48 48 0 0 0 47.9-45L416 128H32z"/>

</symbol>
<symbol id="icon-user-plus-solid" viewBox="0 0 640 512"><path fill="currentColor" d="M624 208h-64v-64c0-8.8-7.2-16-16-16h-32c-8.8 0-16 7.2-16 16v64h-64c-8.8 0-16 7.2-16 16v32c0 8.8 7.2 16 16 16h64v64c0 8.8 7.2 16 16 16h32c8.8 0 16-7.2 16-16v-64h64c8.8 0 16-7.2 16-16v-32c0-8.8-7.2-16-16-16zm-400 48c70.7 0 128-57.3 128-128S294.7 0 224 0 96 57.3 96 128s57.3 128 128 128zm89.6 32h-16.7c-22.2 10.2-46.9 16-72.9 16s-50.6-5.8-72.9-16h-16.7C60.2 288 0 348.2 0 422.4V464c0 26.5 21.5 48 48 48h352c26.5 0 48-21.5 48-48v-41.6c0-74.2-60.2-134.4-134.4-134.4z"/>
</symbol></svg>